<?xml version="1.0" encoding="UTF-8" standalone="no"?>
<!DOCTYPE svg PUBLIC "-//W3C//DTD SVG 1.1//EN" "http://www.w3.org/Graphics/SVG/1.1/DTD/svg11.dtd">
<svg version="1.1" xmlns="http://www.w3.org/2000/svg" xmlns:xlink="http://www.w3.org/1999/xlink" preserveAspectRatio="xMidYMid meet" viewBox="0 0 640 640" width="60" height="60"><defs><path d="M136.97 267.41L136.97 267.41L136.97 267.41L95.16 340.77L53.94 267.15L34.2 267.08L95.18 375.74L146.98 284.65L210.81 284.85L210.87 267.64L136.97 267.41Z" id="b2ZO1cJwHw"></path><path d="M210.73 311.34L137.36 311.11L137.17 371.1L210.54 371.33L210.59 354.11L154.44 353.94L154.52 328.38L210.68 328.56L210.73 311.34Z" id="b4r0jRLIG0"></path><path d="M409.64 268.26C409.64 268.26 409.64 268.26 409.64 268.26C409.45 330.48 409.34 365.04 409.32 371.95C409.32 371.95 409.32 371.95 409.32 371.95C398.99 371.92 393.25 371.9 392.1 371.9C392.1 371.9 392.1 371.9 392.1 371.9C392.3 309.68 392.41 275.12 392.43 268.21C392.43 268.21 392.43 268.21 392.43 268.21C402.76 268.24 408.5 268.26 409.64 268.26Z" id="bamM3fJJ0"></path><path d="M297.74 267.91C297.74 268.07 297.74 268.16 297.74 268.17C303.16 272.56 307.24 278.4 309.61 285.16C311.17 285.17 318.98 285.19 333.05 285.24L332.77 371.71L349.99 371.77L350.26 285.29L385.62 285.4L385.67 268.19L297.74 267.91Z" id="f565iK8EQl"></path><path d="M310.39 371.64C295.23 343.63 286.8 328.06 285.11 324.95C295.99 320.61 303.7 309.91 303.74 297.59C303.79 281.17 290.59 267.89 274.17 267.84C271.57 267.83 258.59 267.79 235.23 267.71L223.71 267.68L218.02 267.66L217.69 371.35L234.91 371.41L235.05 326.91L269.08 327.02L293.18 371.59L310.39 371.64ZM274.11 285.05C281 285.07 286.55 290.65 286.52 297.54C286.5 304.43 280.92 309.97 274.04 309.95C271.44 309.94 258.46 309.9 235.1 309.83L235.18 284.93C258.54 285 271.52 285.04 274.11 285.05Z" id="cLnImLSb"></path><path d="M542.62 264.84L498.15 338.33L498.15 338.46C498.15 338.46 498.15 338.46 498.15 338.46C491.9 348.77 480.62 355.62 467.77 355.58C448.17 355.52 432.33 339.58 432.39 319.98C432.45 300.38 448.4 284.54 468 284.6C480.05 284.64 490.62 290.63 497.08 299.92C498.01 298.38 505.47 286 506.4 284.46C496.9 274.1 483.28 267.7 468.05 267.65C439.05 267.56 415.53 290.93 415.44 319.93C415.35 348.93 438.72 372.44 467.72 372.53C486.79 372.59 503.51 362.45 512.83 347.25C512.83 347.25 512.83 347.25 512.83 347.25L542.51 298.08L587.04 372.78L606.91 372.57L542.62 264.84L542.62 264.84Z" id="a2tnDmC4dS"></path><path d="M627.22 320.79C626.69 490.45 488.52 627.75 318.86 627.22C149.21 626.69 11.9 488.52 12.43 318.86C12.96 149.21 151.14 11.9 320.79 12.43C490.45 12.96 627.75 151.14 627.22 320.79Z" id="c53NIMF7NW"></path></defs><g><g><use xlink:href="#b2ZO1cJwHw" opacity="1" fill="#000000" fill-opacity="1"></use><g><use xlink:href="#b2ZO1cJwHw" opacity="1" fill-opacity="0" stroke="#000000" stroke-width="1" stroke-opacity="0"></use></g></g><g><use xlink:href="#b4r0jRLIG0" opacity="1" fill="#000000" fill-opacity="1"></use><g><use xlink:href="#b4r0jRLIG0" opacity="1" fill-opacity="0" stroke="#000000" stroke-width="1" stroke-opacity="0"></use></g></g><g><use xlink:href="#bamM3fJJ0" opacity="1" fill="#000000" fill-opacity="1"></use><g><use xlink:href="#bamM3fJJ0" opacity="1" fill-opacity="0" stroke="#000000" stroke-width="1" stroke-opacity="0"></use></g></g><g><use xlink:href="#f565iK8EQl" opacity="1" fill="#000000" fill-opacity="1"></use><g><use xlink:href="#f565iK8EQl" opacity="1" fill-opacity="0" stroke="#000000" stroke-width="1" stroke-opacity="0"></use></g></g><g><use xlink:href="#cLnImLSb" opacity="1" fill="#000000" fill-opacity="1"></use><g><use xlink:href="#cLnImLSb" opacity="1" fill-opacity="0" stroke="#000000" stroke-width="1" stroke-opacity="0"></use></g></g><g><use xlink:href="#a2tnDmC4dS" opacity="1" fill="#000000" fill-opacity="1"></use><g><use xlink:href="#a2tnDmC4dS" opacity="1" fill-opacity="0" stroke="#000000" stroke-width="1" stroke-opacity="0"></use></g></g><g><use xlink:href="#c53NIMF7NW" opacity="1" fill="#ffffff" fill-opacity="0.17"></use><g><use xlink:href="#c53NIMF7NW" opacity="1" fill-opacity="0" stroke="#2c2c2c" stroke-width="12" stroke-opacity="1"></use></g></g></g></svg>